<?xml version='1.0' encoding='utf-8'?>
<mxfile version="24.7.8">
  <diagram id="sWgCjdYztQFh1ezxrF-R" name="Page-1">
    <mxGraphModel dx="1420" dy="942" grid="1" gridSize="10" guides="1" tooltips="1" connect="1" arrows="1" fold="1" page="1" pageScale="1" pageWidth="827" pageHeight="1169" math="0" shadow="0">
      <root>
        <mxCell id="0" />
        <mxCell id="1" parent="0" />
        <mxCell id="ukHFlY4HRSyY0bfd62b0-7" value="Coffee Maker" style="shape=umlFrame;whiteSpace=wrap;html=1;pointerEvents=0;recursiveResize=0;container=1;collapsible=0;width=160;" vertex="1" parent="1">
          <mxGeometry x="240" y="390" width="340" height="180" as="geometry" />
        </mxCell>
        <mxCell id="ukHFlY4HRSyY0bfd62b0-10" value="Fill Water" style="ellipse;whiteSpace=wrap;html=1;" vertex="1" parent="ukHFlY4HRSyY0bfd62b0-7">
          <mxGeometry x="20" y="120" width="100" height="50" as="geometry" />
        </mxCell>
        <mxCell id="ukHFlY4HRSyY0bfd62b0-11" value="Make Coffee" style="ellipse;whiteSpace=wrap;html=1;" vertex="1" parent="ukHFlY4HRSyY0bfd62b0-7">
          <mxGeometry x="20" y="50" width="100" height="50" as="geometry" />
        </mxCell>
        <UserObject label="Hover over me." tooltip="Hello I'm a tooltip." id="cVhbZjsc7NjAtHNjXZGz-8">
          <mxCell style="text;html=1;align=center;verticalAlign=middle;resizable=0;points=[];autosize=1;strokeColor=none;fillColor=none;" parent="ukHFlY4HRSyY0bfd62b0-7" vertex="1">
            <mxGeometry x="174" y="90" width="110" height="30" as="geometry" />
          </mxCell>
        </UserObject>
        <mxCell id="ukHFlY4HRSyY0bfd62b0-8" value="Drinker" style="shape=umlActor;verticalLabelPosition=bottom;verticalAlign=top;html=1;" vertex="1" parent="1">
          <mxGeometry x="150" y="400" width="30" height="60" as="geometry" />
        </mxCell>
        <mxCell id="ukHFlY4HRSyY0bfd62b0-9" value="Technician" style="shape=umlActor;verticalLabelPosition=bottom;verticalAlign=top;html=1;" vertex="1" parent="1">
          <mxGeometry x="150" y="500" width="30" height="60" as="geometry" />
        </mxCell>
        <mxCell id="ukHFlY4HRSyY0bfd62b0-12" value="" style="endArrow=classic;html=1;rounded=0;entryX=0;entryY=0.5;entryDx=0;entryDy=0;" edge="1" parent="1" source="ukHFlY4HRSyY0bfd62b0-8" target="ukHFlY4HRSyY0bfd62b0-11">
          <mxGeometry width="50" height="50" relative="1" as="geometry">
            <mxPoint x="390" y="510" as="sourcePoint" />
            <mxPoint x="440" y="460" as="targetPoint" />
          </mxGeometry>
        </mxCell>
        <mxCell id="ukHFlY4HRSyY0bfd62b0-13" value="" style="endArrow=classic;html=1;rounded=0;" edge="1" parent="1" source="ukHFlY4HRSyY0bfd62b0-9" target="ukHFlY4HRSyY0bfd62b0-10">
          <mxGeometry width="50" height="50" relative="1" as="geometry">
            <mxPoint x="190" y="446" as="sourcePoint" />
            <mxPoint x="270" y="475" as="targetPoint" />
          </mxGeometry>
        </mxCell>
      </root>
    </mxGraphModel>
  </diagram>
</mxfile>